<mxfile host="Electron" modified="2023-12-29T15:53:34.409Z" agent="Mozilla/5.0 (Windows NT 10.0; Win64; x64) AppleWebKit/537.36 (KHTML, like Gecko) draw.io/22.1.11 Chrome/114.0.5735.289 Electron/25.9.8 Safari/537.36" etag="jIhl2ucbZeANCiCLelWA" version="22.1.11" type="device">
  <diagram name="Page-1" id="Kp4WjQ1pfqg0f7ZNW6w4">
    <mxGraphModel dx="1338" dy="648" grid="1" gridSize="10" guides="1" tooltips="1" connect="1" arrows="1" fold="1" page="1" pageScale="1" pageWidth="850" pageHeight="1100" math="0" shadow="0">
      <root>
        <mxCell id="0" />
        <mxCell id="1" parent="0" />
        <mxCell id="sTBVZyDu0uiefltKtsp--3" style="edgeStyle=orthogonalEdgeStyle;rounded=0;orthogonalLoop=1;jettySize=auto;html=1;" parent="1" source="sTBVZyDu0uiefltKtsp--1" edge="1">
          <mxGeometry relative="1" as="geometry">
            <mxPoint x="220" y="90" as="targetPoint" />
          </mxGeometry>
        </mxCell>
        <mxCell id="sTBVZyDu0uiefltKtsp--1" value="" style="ellipse;whiteSpace=wrap;html=1;aspect=fixed;fillColor=#FFFFFF;" parent="1" vertex="1">
          <mxGeometry x="70" y="60" width="30" height="30" as="geometry" />
        </mxCell>
        <mxCell id="sTBVZyDu0uiefltKtsp--6" style="edgeStyle=orthogonalEdgeStyle;rounded=0;orthogonalLoop=1;jettySize=auto;html=1;entryX=0;entryY=0.5;entryDx=0;entryDy=0;" parent="1" source="sTBVZyDu0uiefltKtsp--4" target="sTBVZyDu0uiefltKtsp--5" edge="1">
          <mxGeometry relative="1" as="geometry" />
        </mxCell>
        <mxCell id="sTBVZyDu0uiefltKtsp--4" value="Enter all Registration Data" style="rounded=1;whiteSpace=wrap;html=1;" parent="1" vertex="1">
          <mxGeometry x="220" y="60" width="120" height="60" as="geometry" />
        </mxCell>
        <mxCell id="sTBVZyDu0uiefltKtsp--8" style="edgeStyle=orthogonalEdgeStyle;rounded=0;orthogonalLoop=1;jettySize=auto;html=1;entryX=0.5;entryY=0;entryDx=0;entryDy=0;" parent="1" source="sTBVZyDu0uiefltKtsp--5" target="sTBVZyDu0uiefltKtsp--7" edge="1">
          <mxGeometry relative="1" as="geometry" />
        </mxCell>
        <mxCell id="sTBVZyDu0uiefltKtsp--5" value="Check Data Format" style="rounded=1;whiteSpace=wrap;html=1;" parent="1" vertex="1">
          <mxGeometry x="425" y="60" width="120" height="60" as="geometry" />
        </mxCell>
        <mxCell id="sTBVZyDu0uiefltKtsp--11" style="edgeStyle=orthogonalEdgeStyle;rounded=0;orthogonalLoop=1;jettySize=auto;html=1;entryX=1;entryY=0.5;entryDx=0;entryDy=0;" parent="1" source="sTBVZyDu0uiefltKtsp--7" target="sTBVZyDu0uiefltKtsp--9" edge="1">
          <mxGeometry relative="1" as="geometry" />
        </mxCell>
        <mxCell id="sTBVZyDu0uiefltKtsp--7" value="" style="rhombus;whiteSpace=wrap;html=1;" parent="1" vertex="1">
          <mxGeometry x="590" y="170" width="80" height="80" as="geometry" />
        </mxCell>
        <mxCell id="sTBVZyDu0uiefltKtsp--12" style="edgeStyle=orthogonalEdgeStyle;rounded=0;orthogonalLoop=1;jettySize=auto;html=1;exitX=0;exitY=0.5;exitDx=0;exitDy=0;" parent="1" source="sTBVZyDu0uiefltKtsp--9" edge="1">
          <mxGeometry relative="1" as="geometry">
            <mxPoint x="180" y="88" as="targetPoint" />
            <mxPoint x="210" y="208" as="sourcePoint" />
          </mxGeometry>
        </mxCell>
        <mxCell id="sTBVZyDu0uiefltKtsp--9" value="Show Erorr Massage" style="rounded=1;whiteSpace=wrap;html=1;" parent="1" vertex="1">
          <mxGeometry x="390" y="180" width="120" height="60" as="geometry" />
        </mxCell>
        <mxCell id="sTBVZyDu0uiefltKtsp--10" value="Pending For Approval" style="rounded=1;whiteSpace=wrap;html=1;" parent="1" vertex="1">
          <mxGeometry x="580" y="330" width="120" height="60" as="geometry" />
        </mxCell>
        <mxCell id="sTBVZyDu0uiefltKtsp--13" value="valid" style="text;html=1;align=center;verticalAlign=middle;resizable=0;points=[];autosize=1;strokeColor=none;fillColor=none;" parent="1" vertex="1">
          <mxGeometry x="635" y="128" width="50" height="30" as="geometry" />
        </mxCell>
        <mxCell id="sTBVZyDu0uiefltKtsp--14" value="invalid" style="text;html=1;align=center;verticalAlign=middle;resizable=0;points=[];autosize=1;strokeColor=none;fillColor=none;" parent="1" vertex="1">
          <mxGeometry x="520" y="178" width="60" height="30" as="geometry" />
        </mxCell>
        <mxCell id="sTBVZyDu0uiefltKtsp--15" style="edgeStyle=orthogonalEdgeStyle;rounded=0;orthogonalLoop=1;jettySize=auto;html=1;entryX=0.417;entryY=0.167;entryDx=0;entryDy=0;entryPerimeter=0;" parent="1" source="sTBVZyDu0uiefltKtsp--7" target="sTBVZyDu0uiefltKtsp--10" edge="1">
          <mxGeometry relative="1" as="geometry" />
        </mxCell>
        <mxCell id="sTBVZyDu0uiefltKtsp--16" value="" style="ellipse;whiteSpace=wrap;html=1;aspect=fixed;" parent="1" vertex="1">
          <mxGeometry x="620" y="460" width="40" height="40" as="geometry" />
        </mxCell>
        <mxCell id="sTBVZyDu0uiefltKtsp--17" style="edgeStyle=orthogonalEdgeStyle;rounded=0;orthogonalLoop=1;jettySize=auto;html=1;entryX=0.657;entryY=0.067;entryDx=0;entryDy=0;entryPerimeter=0;" parent="1" source="sTBVZyDu0uiefltKtsp--10" target="sTBVZyDu0uiefltKtsp--16" edge="1">
          <mxGeometry relative="1" as="geometry" />
        </mxCell>
      </root>
    </mxGraphModel>
  </diagram>
</mxfile>
